<?xml version="1.0" encoding="UTF-8"?>
<svg xmlns="http://www.w3.org/2000/svg" viewBox="0 0 156 85" width="343.2" height="187"><g stroke-linecap="round" stroke-linejoin="round"><g transform="translate(31.5 35)"><line x1="0" y1="-30" x2="0" y2="-10" fill="none" stroke="currentColor" stroke-width="0.5"/><line x1="-11" y1="-12" x2="0" y2="10" fill="none" stroke="currentColor" stroke-width="0.5"/><line x1="0" y1="10" x2="0" y2="30" fill="none" stroke="currentColor" stroke-width="0.5"/><line x1="-3" y1="-16" x2="0" y2="-10" fill="none" stroke="currentColor" stroke-width="0.5"/></g><text x="26" y="71" text-anchor="middle" font-family="Meiryo,'Yu Gothic',sans-serif" font-size="5" fill="currentColor">07-03-01</text><text x="26" y="77" text-anchor="middle" font-family="Meiryo,'Yu Gothic',sans-serif" font-size="4.6" fill="currentColor" opacity="0.75">動作瞬時接点</text><g transform="translate(82 35)"><line x1="0" y1="-30" x2="0" y2="-10" fill="none" stroke="currentColor" stroke-width="0.5"/><line x1="-11" y1="-12" x2="0" y2="10" fill="none" stroke="currentColor" stroke-width="0.5"/><line x1="0" y1="10" x2="0" y2="30" fill="none" stroke="currentColor" stroke-width="0.5"/><line x1="3" y1="-16" x2="0" y2="-10" fill="none" stroke="currentColor" stroke-width="0.5"/></g><text x="78" y="71" text-anchor="middle" font-family="Meiryo,'Yu Gothic',sans-serif" font-size="5" fill="currentColor">07-03-02</text><text x="78" y="77" text-anchor="middle" font-family="Meiryo,'Yu Gothic',sans-serif" font-size="4.6" fill="currentColor" opacity="0.75">復帰瞬時接点</text><g transform="translate(134 35)"><line x1="0" y1="-30" x2="0" y2="-10" fill="none" stroke="currentColor" stroke-width="0.5"/><line x1="-11" y1="-12" x2="0" y2="10" fill="none" stroke="currentColor" stroke-width="0.5"/><line x1="0" y1="10" x2="0" y2="30" fill="none" stroke="currentColor" stroke-width="0.5"/><line x1="-3" y1="-16" x2="0" y2="-10" fill="none" stroke="currentColor" stroke-width="0.5"/><line x1="3" y1="-16" x2="0" y2="-10" fill="none" stroke="currentColor" stroke-width="0.5"/></g><text x="130" y="71" text-anchor="middle" font-family="Meiryo,'Yu Gothic',sans-serif" font-size="5" fill="currentColor">07-03-03</text><text x="130" y="77" text-anchor="middle" font-family="Meiryo,'Yu Gothic',sans-serif" font-size="4.6" fill="currentColor" opacity="0.75">動作復帰瞬時接点</text></g></svg>
