<?xml version="1.0" encoding="UTF-8"?>
<svg xmlns="http://www.w3.org/2000/svg" viewBox="0 0 371 170" width="816.2" height="374"><g stroke-linecap="round" stroke-linejoin="round"><g transform="translate(41 35)"><line x1="0" y1="-30" x2="0" y2="-10" fill="none" stroke="currentColor" stroke-width="0.5"/><line x1="-11" y1="-12" x2="0" y2="10" fill="none" stroke="currentColor" stroke-width="0.5"/><line x1="0" y1="10" x2="0" y2="30" fill="none" stroke="currentColor" stroke-width="0.5"/><path d="M -21.5 -8.5 A 8.5 8.5 0 0 0 -21.5 8.5" fill="none" stroke="currentColor" stroke-width="0.5"/><line x1="-30" y1="-1.5" x2="-5.75" y2="-1.5" fill="none" stroke="currentColor" stroke-width="0.5"/><line x1="-30" y1="1.5" x2="-4.25" y2="1.5" fill="none" stroke="currentColor" stroke-width="0.5"/></g><text x="26" y="71" text-anchor="middle" font-family="Meiryo,'Yu Gothic',sans-serif" font-size="5" fill="currentColor">07-05-01</text><text x="26" y="77" text-anchor="middle" font-family="Meiryo,'Yu Gothic',sans-serif" font-size="4.6" fill="currentColor" opacity="0.75">メーク接点（限時閉…</text><g transform="translate(92.25 35)"><line x1="0" y1="-30" x2="0" y2="-10" fill="none" stroke="currentColor" stroke-width="0.5"/><line x1="-11" y1="-12" x2="0" y2="10" fill="none" stroke="currentColor" stroke-width="0.5"/><line x1="0" y1="10" x2="0" y2="30" fill="none" stroke="currentColor" stroke-width="0.5"/><path d="M -28.5 8.5 A 8.5 8.5 0 0 0 -28.5 -8.5" fill="none" stroke="currentColor" stroke-width="0.5"/><line x1="-20" y1="-1.5" x2="-5.75" y2="-1.5" fill="none" stroke="currentColor" stroke-width="0.5"/><line x1="-20" y1="1.5" x2="-4.25" y2="1.5" fill="none" stroke="currentColor" stroke-width="0.5"/></g><text x="78" y="71" text-anchor="middle" font-family="Meiryo,'Yu Gothic',sans-serif" font-size="5" fill="currentColor">07-05-02</text><text x="78" y="77" text-anchor="middle" font-family="Meiryo,'Yu Gothic',sans-serif" font-size="4.6" fill="currentColor" opacity="0.75">メーク接点（限時開…</text><g transform="translate(135 35)"><line x1="0" y1="-30" x2="0" y2="-10" fill="none" stroke="currentColor" stroke-width="0.5"/><line x1="0" y1="-10" x2="10" y2="-10" fill="none" stroke="currentColor" stroke-width="0.5"/><line x1="7.5" y1="-12.5" x2="0" y2="10" fill="none" stroke="currentColor" stroke-width="0.5"/><line x1="0" y1="10" x2="0" y2="30" fill="none" stroke="currentColor" stroke-width="0.5"/><path d="M -11.5 -8.5 A 8.5 8.5 0 0 0 -11.5 8.5" fill="none" stroke="currentColor" stroke-width="0.5"/><line x1="-20" y1="-1.5" x2="3.83" y2="-1.5" fill="none" stroke="currentColor" stroke-width="0.5"/><line x1="-20" y1="1.5" x2="2.83" y2="1.5" fill="none" stroke="currentColor" stroke-width="0.5"/></g><text x="130" y="71" text-anchor="middle" font-family="Meiryo,'Yu Gothic',sans-serif" font-size="5" fill="currentColor">07-05-03</text><text x="130" y="77" text-anchor="middle" font-family="Meiryo,'Yu Gothic',sans-serif" font-size="4.6" fill="currentColor" opacity="0.75">ブレーク接点（限時…</text><g transform="translate(186.25 35)"><line x1="0" y1="-30" x2="0" y2="-10" fill="none" stroke="currentColor" stroke-width="0.5"/><line x1="0" y1="-10" x2="10" y2="-10" fill="none" stroke="currentColor" stroke-width="0.5"/><line x1="7.5" y1="-12.5" x2="0" y2="10" fill="none" stroke="currentColor" stroke-width="0.5"/><line x1="0" y1="10" x2="0" y2="30" fill="none" stroke="currentColor" stroke-width="0.5"/><path d="M -18.5 8.5 A 8.5 8.5 0 0 0 -18.5 -8.5" fill="none" stroke="currentColor" stroke-width="0.5"/><line x1="-10" y1="-1.5" x2="3.83" y2="-1.5" fill="none" stroke="currentColor" stroke-width="0.5"/><line x1="-10" y1="1.5" x2="2.83" y2="1.5" fill="none" stroke="currentColor" stroke-width="0.5"/></g><text x="182" y="71" text-anchor="middle" font-family="Meiryo,'Yu Gothic',sans-serif" font-size="5" fill="currentColor">07-05-04</text><text x="182" y="77" text-anchor="middle" font-family="Meiryo,'Yu Gothic',sans-serif" font-size="4.6" fill="currentColor" opacity="0.75">ブレーク接点（限時…</text><g transform="translate(250.75 35)"><line x1="0" y1="-30" x2="0" y2="-10" fill="none" stroke="currentColor" stroke-width="0.5"/><line x1="-11" y1="-12" x2="0" y2="10" fill="none" stroke="currentColor" stroke-width="0.5"/><line x1="0" y1="10" x2="0" y2="30" fill="none" stroke="currentColor" stroke-width="0.5"/><path d="M -33.5 8.5 A 8.5 8.5 0 0 0 -33.5 -8.5" fill="none" stroke="currentColor" stroke-width="0.5"/><path d="M -16.5 -8.5 A 8.5 8.5 0 0 0 -16.5 8.5" fill="none" stroke="currentColor" stroke-width="0.5"/><line x1="-25" y1="-1.5" x2="-5.75" y2="-1.5" fill="none" stroke="currentColor" stroke-width="0.5"/><line x1="-25" y1="1.5" x2="-4.25" y2="1.5" fill="none" stroke="currentColor" stroke-width="0.5"/></g><text x="234" y="71" text-anchor="middle" font-family="Meiryo,'Yu Gothic',sans-serif" font-size="5" fill="currentColor">07-05-05</text><text x="234" y="77" text-anchor="middle" font-family="Meiryo,'Yu Gothic',sans-serif" font-size="4.6" fill="currentColor" opacity="0.75">メーク接点（限時）</text><g transform="translate(316 35)"><line x1="-40" y1="-30" x2="-40" y2="-10" fill="none" stroke="currentColor" stroke-width="0.5"/><line x1="-51" y1="-12" x2="-40" y2="10" fill="none" stroke="currentColor" stroke-width="0.5"/><line x1="-40" y1="10" x2="-40" y2="30" fill="none" stroke="currentColor" stroke-width="0.5"/><line x1="0" y1="-30" x2="0" y2="-10" fill="none" stroke="currentColor" stroke-width="0.5"/><line x1="-11" y1="-12" x2="0" y2="10" fill="none" stroke="currentColor" stroke-width="0.5"/><line x1="0" y1="10" x2="0" y2="30" fill="none" stroke="currentColor" stroke-width="0.5"/><path d="M -19.75 -8.5 A 8.5 8.5 0 0 0 -19.75 8.5" fill="none" stroke="currentColor" stroke-width="0.5"/><line x1="-28.25" y1="-1.5" x2="-5.75" y2="-1.5" fill="none" stroke="currentColor" stroke-width="0.5"/><line x1="-28.25" y1="1.5" x2="-4.25" y2="1.5" fill="none" stroke="currentColor" stroke-width="0.5"/><line x1="40" y1="-30" x2="40" y2="-10" fill="none" stroke="currentColor" stroke-width="0.5"/><line x1="40" y1="-10" x2="50" y2="-10" fill="none" stroke="currentColor" stroke-width="0.5"/><line x1="47.5" y1="-12.5" x2="40" y2="10" fill="none" stroke="currentColor" stroke-width="0.5"/><line x1="40" y1="10" x2="40" y2="30" fill="none" stroke="currentColor" stroke-width="0.5"/><path d="M 27.65 8.5 A 8.5 8.5 0 0 0 27.65 -8.5" fill="none" stroke="currentColor" stroke-width="0.5"/><line x1="27.65" y1="-1.5" x2="43.83" y2="-1.5" fill="none" stroke="currentColor" stroke-width="0.5"/><line x1="27.65" y1="1.5" x2="42.83" y2="1.5" fill="none" stroke="currentColor" stroke-width="0.5"/><line x1="-45" y1="0" x2="43.3" y2="0" fill="none" stroke="currentColor" stroke-width="0.5" stroke-dasharray="4,2"/></g><text x="315.5" y="71" text-anchor="middle" font-family="Meiryo,'Yu Gothic',sans-serif" font-size="5" fill="currentColor">07-05-06</text><text x="315.5" y="77" text-anchor="middle" font-family="Meiryo,'Yu Gothic',sans-serif" font-size="4.6" fill="currentColor" opacity="0.75">接点の組合せ</text><g transform="translate(32.75 120)"><line x1="0" y1="-30" x2="0" y2="-10" fill="none" stroke="currentColor" stroke-width="0.5"/><line x1="0" y1="-10" x2="10" y2="-10" fill="none" stroke="currentColor" stroke-width="0.5"/><line x1="7.5" y1="-12.5" x2="0" y2="10" fill="none" stroke="currentColor" stroke-width="0.5"/><line x1="0" y1="10" x2="0" y2="30" fill="none" stroke="currentColor" stroke-width="0.5"/><path d="M -23.5 8.5 A 8.5 8.5 0 0 0 -23.5 -8.5" fill="none" stroke="currentColor" stroke-width="0.5"/><path d="M -6.5 -8.5 A 8.5 8.5 0 0 0 -6.5 8.5" fill="none" stroke="currentColor" stroke-width="0.5"/><line x1="-15" y1="-1.5" x2="3.83" y2="-1.5" fill="none" stroke="currentColor" stroke-width="0.5"/><line x1="-15" y1="1.5" x2="2.83" y2="1.5" fill="none" stroke="currentColor" stroke-width="0.5"/></g><text x="26" y="156" text-anchor="middle" font-family="Meiryo,'Yu Gothic',sans-serif" font-size="5" fill="currentColor">07-05-07</text><text x="26" y="162" text-anchor="middle" font-family="Meiryo,'Yu Gothic',sans-serif" font-size="4.6" fill="currentColor" opacity="0.75">ブレーク接点（限時）</text></g></svg>
