<?xml version="1.0" encoding="UTF-8"?>
<svg xmlns="http://www.w3.org/2000/svg" viewBox="0 0 314 170" width="690.8" height="374"><g stroke-linecap="round" stroke-linejoin="round"><g transform="translate(27 35)"><polygon points="3.5,-3.5 3.5,3.5 -3.5,0" fill="none" stroke="currentColor" stroke-width="0.5"/></g><text x="27" y="71" text-anchor="middle" font-family="Meiryo,'Yu Gothic',sans-serif" font-size="5" fill="currentColor">07-A1-04</text><text x="27" y="77" text-anchor="middle" font-family="Meiryo,'Yu Gothic',sans-serif" font-size="4.6" fill="currentColor" opacity="0.75">自動復帰機能（旧図記…</text><g transform="translate(80 35)"><ellipse cx="0" cy="0" rx="4" ry="4" fill="none" stroke="currentColor" stroke-width="0.5"/></g><text x="80" y="71" text-anchor="middle" font-family="Meiryo,'Yu Gothic',sans-serif" font-size="5" fill="currentColor">07-A1-05</text><text x="80" y="77" text-anchor="middle" font-family="Meiryo,'Yu Gothic',sans-serif" font-size="4.6" fill="currentColor" opacity="0.75">非自動復帰機能（旧…</text><g transform="translate(135.9 35)"><line x1="0" y1="-30" x2="0" y2="-10" fill="none" stroke="currentColor" stroke-width="0.5"/><line x1="-11" y1="-12" x2="-1.4" y2="7.1" fill="none" stroke="currentColor" stroke-width="0.5"/><ellipse cx="0" cy="10" rx="3.2" ry="3.2" fill="none" stroke="currentColor" stroke-width="0.5"/><line x1="0" y1="13.2" x2="0" y2="30" fill="none" stroke="currentColor" stroke-width="0.5"/></g><text x="132" y="71" text-anchor="middle" font-family="Meiryo,'Yu Gothic',sans-serif" font-size="5" fill="currentColor">07-A2-02</text><text x="132" y="77" text-anchor="middle" font-family="Meiryo,'Yu Gothic',sans-serif" font-size="4.6" fill="currentColor" opacity="0.75">メーク接点（接点位…</text><g transform="translate(189.5 35)"><line x1="0" y1="-30" x2="0" y2="-10" fill="none" stroke="currentColor" stroke-width="0.5"/><line x1="-11" y1="-12" x2="0" y2="10" fill="none" stroke="currentColor" stroke-width="0.5"/><line x1="0" y1="10" x2="0" y2="30" fill="none" stroke="currentColor" stroke-width="0.5"/><polygon points="0,-17 0,-10 -7,-13.5" fill="none" stroke="currentColor" stroke-width="0.5"/></g><text x="184" y="71" text-anchor="middle" font-family="Meiryo,'Yu Gothic',sans-serif" font-size="5" fill="currentColor">07-A6-01</text><text x="184" y="77" text-anchor="middle" font-family="Meiryo,'Yu Gothic',sans-serif" font-size="4.6" fill="currentColor" opacity="0.75">自動復帰するメーク…</text><g transform="translate(239.5 35)"><line x1="0" y1="-30" x2="0" y2="-17.5" fill="none" stroke="currentColor" stroke-width="0.5"/><ellipse cx="0" cy="-13.5" rx="4" ry="4" fill="none" stroke="currentColor" stroke-width="0.5"/><line x1="-11" y1="-12" x2="0" y2="10" fill="none" stroke="currentColor" stroke-width="0.5"/><line x1="0" y1="10" x2="0" y2="30" fill="none" stroke="currentColor" stroke-width="0.5"/></g><text x="236" y="71" text-anchor="middle" font-family="Meiryo,'Yu Gothic',sans-serif" font-size="5" fill="currentColor">07-A6-02</text><text x="236" y="77" text-anchor="middle" font-family="Meiryo,'Yu Gothic',sans-serif" font-size="4.6" fill="currentColor" opacity="0.75">残留機能付きメーク…</text><g transform="translate(283 35)"><line x1="0" y1="-30" x2="0" y2="-10" fill="none" stroke="currentColor" stroke-width="0.5"/><line x1="0" y1="-10" x2="10" y2="-10" fill="none" stroke="currentColor" stroke-width="0.5"/><line x1="7.5" y1="-12" x2="0" y2="10" fill="none" stroke="currentColor" stroke-width="0.5"/><line x1="0" y1="10" x2="0" y2="30" fill="none" stroke="currentColor" stroke-width="0.5"/><polygon points="0,-17 0,-10 7,-13.5" fill="none" stroke="currentColor" stroke-width="0.5"/></g><text x="288" y="71" text-anchor="middle" font-family="Meiryo,'Yu Gothic',sans-serif" font-size="5" fill="currentColor">07-A6-03</text><text x="288" y="77" text-anchor="middle" font-family="Meiryo,'Yu Gothic',sans-serif" font-size="4.6" fill="currentColor" opacity="0.75">自動復帰するブレー…</text><g transform="translate(25 120)"><line x1="-20" y1="-30" x2="-20" y2="-10" fill="none" stroke="currentColor" stroke-width="0.5"/><polygon points="-20,-17 -20,-10 -13,-13.5" fill="none" stroke="currentColor" stroke-width="0.5"/><line x1="20" y1="-30" x2="20" y2="-17.5" fill="none" stroke="currentColor" stroke-width="0.5"/><ellipse cx="20" cy="-13.5" rx="4" ry="4" fill="none" stroke="currentColor" stroke-width="0.5"/><line x1="0" y1="-14" x2="0" y2="6.8" fill="none" stroke="currentColor" stroke-width="0.5"/><ellipse cx="0" cy="10" rx="3.2" ry="3.2" fill="none" stroke="currentColor" stroke-width="0.5"/><line x1="0" y1="13.2" x2="0" y2="30" fill="none" stroke="currentColor" stroke-width="0.5"/></g><text x="27" y="156" text-anchor="middle" font-family="Meiryo,'Yu Gothic',sans-serif" font-size="5" fill="currentColor">07-A6-04</text><text x="27" y="162" text-anchor="middle" font-family="Meiryo,'Yu Gothic',sans-serif" font-size="4.6" fill="currentColor" opacity="0.75">オフ位置付き切換え接…</text></g></svg>
