<?xml version="1.0" encoding="UTF-8"?>
<svg xmlns="http://www.w3.org/2000/svg" viewBox="0 0 312 170" width="686.4" height="374"><g stroke-linecap="round" stroke-linejoin="round"><g transform="translate(26 35)"><ellipse cx="0" cy="0" rx="10" ry="10" fill="none" stroke="currentColor" stroke-width="0.5"/><line x1="-7" y1="-7" x2="7" y2="7" fill="none" stroke="currentColor" stroke-width="0.5"/><line x1="-7" y1="7" x2="7" y2="-7" fill="none" stroke="currentColor" stroke-width="0.5"/></g><text x="26" y="71" text-anchor="middle" font-family="Meiryo,'Yu Gothic',sans-serif" font-size="5" fill="currentColor">08-10-01</text><text x="26" y="77" text-anchor="middle" font-family="Meiryo,'Yu Gothic',sans-serif" font-size="4.6" fill="currentColor" opacity="0.75">ランプ（一般図記号）</text><g transform="translate(73.2 35)"><ellipse cx="0" cy="0" rx="10" ry="10" fill="green" stroke="currentColor" stroke-width="0.5"/><line x1="-7" y1="-7" x2="7" y2="7" fill="none" stroke="currentColor" stroke-width="0.5"/><line x1="-7" y1="7" x2="7" y2="-7" fill="none" stroke="currentColor" stroke-width="0.5"/><line x1="0" y1="-30" x2="0" y2="-10" fill="none" stroke="currentColor" stroke-width="0.5"/><line x1="0" y1="10" x2="0" y2="30" fill="none" stroke="currentColor" stroke-width="0.5"/><text x="12.4" y="4.3" font-family="Liberation Sans,Arial,Helvetica,sans-serif" font-size="12" fill="currentColor">G</text></g><text x="78" y="71" text-anchor="middle" font-family="Meiryo,'Yu Gothic',sans-serif" font-size="5" fill="currentColor">08-10-01_green</text><text x="78" y="77" text-anchor="middle" font-family="Meiryo,'Yu Gothic',sans-serif" font-size="4.6" fill="currentColor" opacity="0.75">表示灯（緑）</text><g transform="translate(125.265 35)"><ellipse cx="0" cy="0" rx="10" ry="10" fill="red" stroke="currentColor" stroke-width="0.5"/><line x1="-7" y1="-7" x2="7" y2="7" fill="none" stroke="currentColor" stroke-width="0.5"/><line x1="-7" y1="7" x2="7" y2="-7" fill="none" stroke="currentColor" stroke-width="0.5"/><line x1="0" y1="-30" x2="0" y2="-10" fill="none" stroke="currentColor" stroke-width="0.5"/><line x1="0" y1="10" x2="0" y2="30" fill="none" stroke="currentColor" stroke-width="0.5"/><text x="12.27" y="4.3" font-family="Liberation Sans,Arial,Helvetica,sans-serif" font-size="12" fill="currentColor">R</text></g><text x="130" y="71" text-anchor="middle" font-family="Meiryo,'Yu Gothic',sans-serif" font-size="5" fill="currentColor">08-10-01_red</text><text x="130" y="77" text-anchor="middle" font-family="Meiryo,'Yu Gothic',sans-serif" font-size="4.6" fill="currentColor" opacity="0.75">表示灯（赤）</text><g transform="translate(177.725 35)"><ellipse cx="0" cy="0" rx="10" ry="10" fill="white" stroke="currentColor" stroke-width="0.5"/><line x1="-7" y1="-7" x2="7" y2="7" fill="none" stroke="currentColor" stroke-width="0.5"/><line x1="-7" y1="7" x2="7" y2="-7" fill="none" stroke="currentColor" stroke-width="0.5"/><line x1="0" y1="-30" x2="0" y2="-10" fill="none" stroke="currentColor" stroke-width="0.5"/><line x1="0" y1="10" x2="0" y2="30" fill="none" stroke="currentColor" stroke-width="0.5"/><text x="11.35" y="4.3" font-family="Liberation Sans,Arial,Helvetica,sans-serif" font-size="12" fill="currentColor">W</text></g><text x="182" y="71" text-anchor="middle" font-family="Meiryo,'Yu Gothic',sans-serif" font-size="5" fill="currentColor">08-10-01_white</text><text x="182" y="77" text-anchor="middle" font-family="Meiryo,'Yu Gothic',sans-serif" font-size="4.6" fill="currentColor" opacity="0.75">表示灯（白）</text><g transform="translate(228.885 35)"><ellipse cx="0" cy="0" rx="10" ry="10" fill="yellow" stroke="currentColor" stroke-width="0.5"/><line x1="-7" y1="-7" x2="7" y2="7" fill="none" stroke="currentColor" stroke-width="0.5"/><line x1="-7" y1="7" x2="7" y2="-7" fill="none" stroke="currentColor" stroke-width="0.5"/><line x1="0" y1="-30" x2="0" y2="-10" fill="none" stroke="currentColor" stroke-width="0.5"/><line x1="0" y1="10" x2="0" y2="30" fill="none" stroke="currentColor" stroke-width="0.5"/><text x="13.03" y="4.3" font-family="Liberation Sans,Arial,Helvetica,sans-serif" font-size="12" fill="currentColor">Y</text></g><text x="234" y="71" text-anchor="middle" font-family="Meiryo,'Yu Gothic',sans-serif" font-size="5" fill="currentColor">08-10-01_yellow</text><text x="234" y="77" text-anchor="middle" font-family="Meiryo,'Yu Gothic',sans-serif" font-size="4.6" fill="currentColor" opacity="0.75">表示灯（黄）</text><g transform="translate(286 35)"><ellipse cx="0" cy="0" rx="10" ry="10" fill="black" stroke="currentColor" stroke-width="0.5"/><polygon points="-8.1,-5.85 8.1,-5.85 9.7,-2.25 -9.7,-2.25" fill="white" stroke="currentColor" stroke-width="0.5"/><polygon points="-9.7,2.25 9.7,2.25 8.1,5.85 -8.1,5.85" fill="white" stroke="currentColor" stroke-width="0.5"/></g><text x="286" y="71" text-anchor="middle" font-family="Meiryo,'Yu Gothic',sans-serif" font-size="5" fill="currentColor">08-10-03</text><text x="286" y="77" text-anchor="middle" font-family="Meiryo,'Yu Gothic',sans-serif" font-size="4.6" fill="currentColor" opacity="0.75">電気機械式表示器，…</text><g transform="translate(26 119.5)"><path d="M 20 0 A 20 20 0 0 0 -20 -2.44929e-15" fill="none" stroke="currentColor" stroke-width="0.5"/><line x1="-20" y1="0" x2="20" y2="0" fill="none" stroke="currentColor" stroke-width="0.5"/><line x1="-10" y1="0" x2="-10" y2="21" fill="none" stroke="currentColor" stroke-width="0.5"/><line x1="10" y1="0" x2="10" y2="21" fill="none" stroke="currentColor" stroke-width="0.5"/></g><text x="26" y="156" text-anchor="middle" font-family="Meiryo,'Yu Gothic',sans-serif" font-size="5" fill="currentColor">08-10-06</text><text x="26" y="162" text-anchor="middle" font-family="Meiryo,'Yu Gothic',sans-serif" font-size="4.6" fill="currentColor" opacity="0.75">音響信号装置（一般…</text><g transform="translate(78 119.5)"><line x1="0" y1="-20" x2="-20" y2="0" fill="none" stroke="currentColor" stroke-width="0.5"/><line x1="0" y1="-20" x2="20" y2="0" fill="none" stroke="currentColor" stroke-width="0.5"/><line x1="-20" y1="0" x2="20" y2="0" fill="none" stroke="currentColor" stroke-width="0.5"/><line x1="-10" y1="0" x2="-10" y2="21" fill="none" stroke="currentColor" stroke-width="0.5"/><line x1="10" y1="0" x2="10" y2="21" fill="none" stroke="currentColor" stroke-width="0.5"/></g><text x="78" y="156" text-anchor="middle" font-family="Meiryo,'Yu Gothic',sans-serif" font-size="5" fill="currentColor">08-10-09</text><text x="78" y="162" text-anchor="middle" font-family="Meiryo,'Yu Gothic',sans-serif" font-size="4.6" fill="currentColor" opacity="0.75">サイレン</text><g transform="translate(130 119.5)"><line x1="-20" y1="-20" x2="20" y2="-20" fill="none" stroke="currentColor" stroke-width="0.5"/><path d="M -20 -20 A 20 20 0 0 0 20 -20" fill="none" stroke="currentColor" stroke-width="0.5"/><line x1="-10" y1="-2.7" x2="-10" y2="21" fill="none" stroke="currentColor" stroke-width="0.5"/><line x1="10" y1="-2.7" x2="10" y2="21" fill="none" stroke="currentColor" stroke-width="0.5"/></g><text x="130" y="156" text-anchor="middle" font-family="Meiryo,'Yu Gothic',sans-serif" font-size="5" fill="currentColor">08-10-10</text><text x="130" y="162" text-anchor="middle" font-family="Meiryo,'Yu Gothic',sans-serif" font-size="4.6" fill="currentColor" opacity="0.75">ブザー</text><g transform="translate(174.5 120)"><ellipse cx="0" cy="0" rx="10" ry="10" fill="none" stroke="currentColor" stroke-width="0.5"/><ellipse cx="15" cy="0" rx="10" ry="10" fill="none" stroke="currentColor" stroke-width="0.5"/><line x1="8" y1="-7" x2="22" y2="7" fill="none" stroke="currentColor" stroke-width="0.5"/><line x1="8" y1="7" x2="22" y2="-7" fill="none" stroke="currentColor" stroke-width="0.5"/><line x1="0" y1="-30" x2="0" y2="-10" fill="none" stroke="currentColor" stroke-width="0.5"/><line x1="0" y1="10" x2="0" y2="30" fill="none" stroke="currentColor" stroke-width="0.5"/></g><text x="182" y="156" text-anchor="middle" font-family="Meiryo,'Yu Gothic',sans-serif" font-size="5" fill="currentColor">08-10-13</text><text x="182" y="162" text-anchor="middle" font-family="Meiryo,'Yu Gothic',sans-serif" font-size="4.6" fill="currentColor" opacity="0.75">変圧器付き信号ランプ</text></g></svg>
